<svg width="22" height="24" viewBox="0 0 22 24" fill="none" xmlns="http://www.w3.org/2000/svg">
<path d="M18.3737 12.7505C18.4115 16.3823 21.9609 17.5911 22 17.6065C21.97 17.6915 21.433 19.329 20.1303 21.0199C19.0042 22.4819 17.8352 23.9385 15.9942 23.969C14.1852 23.9984 13.6035 23.0159 11.535 23.0159C9.46716 23.0159 8.82102 23.9385 7.10835 23.9984C5.33109 24.0583 3.9777 22.4172 2.84222 20.9608C0.522124 17.9811 -1.25101 12.5409 1.12977 8.86867C2.31244 7.04501 4.42636 5.89036 6.72058 5.86061C8.46566 5.83105 10.1129 6.90341 11.1796 6.90341C12.2457 6.90341 14.2474 5.61372 16.3518 5.80304C17.2328 5.83569 19.7056 6.11909 21.2934 8.18383C21.1657 8.25434 18.343 9.71404 18.3737 12.7505ZM14.9738 3.83199C15.9172 2.81758 16.5523 1.40502 16.3792 0C15.019 0.048489 13.3744 0.804995 12.399 1.81902C11.5248 2.71674 10.7592 4.15402 10.9656 5.53123C12.4817 5.63555 14.0302 4.84697 14.9738 3.83199Z" fill="black"/>
</svg>
