<svg width="25" height="24" viewBox="0 0 25 24" fill="none" xmlns="http://www.w3.org/2000/svg">
<path opacity="0.3" d="M21.5056 12V19C21.5056 19.5304 21.2949 20.0391 20.9198 20.4142C20.5448 20.7893 20.036 21 19.5056 21H5.50562C4.97518 21 4.46647 20.7893 4.0914 20.4142C3.71633 20.0391 3.50562 19.5304 3.50562 19V12H21.5056Z" fill="black"/>
<path d="M16.5056 3C16.7708 3 17.0252 3.10536 17.2127 3.29289C17.4003 3.48043 17.5056 3.73478 17.5056 4V5H19.5056C20.036 5 20.5448 5.21071 20.9198 5.58579C21.2949 5.96086 21.5056 6.46957 21.5056 7V10H3.50562V7C3.50562 6.46957 3.71633 5.96086 4.0914 5.58579C4.46647 5.21071 4.97518 5 5.50562 5H7.50562V4C7.50562 3.73478 7.61097 3.48043 7.79851 3.29289C7.98604 3.10536 8.2404 3 8.50562 3C8.77083 3 9.02519 3.10536 9.21272 3.29289C9.40026 3.48043 9.50562 3.73478 9.50562 4V5H15.5056V4C15.5056 3.73478 15.611 3.48043 15.7985 3.29289C15.986 3.10536 16.2404 3 16.5056 3Z" fill="black"/>
</svg>
