<svg width="28" height="28" viewBox="0 0 28 28" fill="none" xmlns="http://www.w3.org/2000/svg">
<g clip-path="url(#clip0_880_1089)">
<path fill-rule="evenodd" clip-rule="evenodd" d="M21.0612 22.918C18.8743 24.6498 16.1273 25.5176 13.3423 25.3564C10.5574 25.1952 7.92883 24.0162 5.9563 22.0437C3.98377 20.0712 2.80484 17.4426 2.64364 14.6577C2.48245 11.8727 3.35023 9.12569 5.082 6.93875L21.0612 22.918ZM22.918 21.063L6.93875 5.08025C9.12569 3.34848 11.8727 2.4807 14.6577 2.64189C17.4426 2.80309 20.0712 3.98202 22.0437 5.95455C24.0162 7.92708 25.1952 10.5557 25.3564 13.3406C25.5176 16.1255 24.6498 18.8726 22.918 21.0595V21.063ZM28 14C28 17.713 26.525 21.274 23.8995 23.8995C21.274 26.525 17.713 28 14 28C10.287 28 6.72601 26.525 4.10051 23.8995C1.475 21.274 0 17.713 0 14C0 10.287 1.475 6.72601 4.10051 4.10051C6.72601 1.475 10.287 0 14 0C17.713 0 21.274 1.475 23.8995 4.10051C26.525 6.72601 28 10.287 28 14Z" fill="#E94235"/>
</g>
<defs>
<clipPath id="clip0_880_1089">
<rect width="28" height="28" fill="white"/>
</clipPath>
</defs>
</svg>
