<svg width="45" height="43" viewBox="0 0 45 43" fill="none" xmlns="http://www.w3.org/2000/svg">
<path d="M15.6748 0.5H29.2871C33.8402 0.5 35.9901 0.504064 38.3564 1.22754C39.5999 1.66107 40.7278 2.349 41.6611 3.24121C42.4793 4.02342 43.1311 4.94613 43.583 5.95801L43.7637 6.39746C44.4952 8.62762 44.5 10.6908 44.5 15.0205V28.0156C44.5 32.3275 44.4954 34.3907 43.7637 36.6211C43.3134 37.8105 42.5938 38.8928 41.6553 39.79C40.7187 40.6852 39.5863 41.3734 38.3379 41.8066C36.0082 42.4947 33.8385 42.5 29.3066 42.5H15.6562C11.138 42.5 8.9694 42.4946 6.61914 41.7871C5.37805 41.3535 4.25211 40.6671 3.32031 39.7764C2.50208 38.9941 1.85035 38.0715 1.39844 37.0596L1.21777 36.6201C0.504691 34.3896 0.5 32.342 0.5 28.0156V14.9844C0.5 10.6668 0.504686 8.60387 1.23926 6.37012C1.68786 5.18567 2.40369 4.10793 3.33691 3.21289C4.2709 2.31713 5.40031 1.62669 6.64648 1.19141C8.97493 0.504306 11.1636 0.5 15.6748 0.5ZM24.2627 6.77734C23.9463 6.77298 23.6357 6.87308 23.3828 7.06445C23.1267 7.25827 22.9441 7.53465 22.874 7.84961L22.873 7.85449L22.4834 9.68555C20.3338 9.83419 18.3225 10.4262 16.8096 11.5312C15.1873 12.7162 14.1622 14.4764 14.1621 16.8125C14.1621 18.8436 15.0261 20.3088 16.3184 21.3965C17.5868 22.464 19.2674 23.1675 20.9258 23.7354V23.7363C22.517 24.3045 23.6471 24.6659 24.4033 25.0781C24.7712 25.2787 25.0046 25.4687 25.1475 25.6621C25.2819 25.8441 25.3564 26.0563 25.3564 26.3486C25.3564 26.9246 25.066 27.4137 24.4727 27.7812C23.8641 28.1582 22.9471 28.3936 21.7871 28.3936H21.7803C19.5424 28.4275 17.3777 27.6117 15.7666 26.1562L15.7646 26.1553L15.6621 26.0713C15.4146 25.8884 15.112 25.79 14.8027 25.79C14.4494 25.7901 14.1057 25.919 13.8418 26.1553L13.835 26.1611L11.96 27.8994L11.9551 27.9043C11.8236 28.0296 11.718 28.1798 11.6455 28.3467C11.573 28.5137 11.5352 28.6937 11.5352 28.876C11.5352 29.0582 11.573 29.2383 11.6455 29.4053C11.6864 29.4993 11.7392 29.587 11.7998 29.6689V29.7266L11.9668 29.876C13.4289 31.1847 15.1894 32.1423 17.1035 32.6777L16.6875 34.4814L16.6865 34.4873C16.6069 34.8526 16.6813 35.2316 16.8896 35.541C17.0975 35.8495 17.4199 36.0618 17.7822 36.1396L17.8086 36.1455L17.835 36.1484L18.0039 36.166L18.0293 36.1689H21.4121C21.7323 36.1691 22.0455 36.0639 22.2988 35.8672C22.5526 35.67 22.732 35.3915 22.8008 35.0762L22.7998 35.0752L23.2061 33.29C25.774 33.0848 27.8987 32.3098 29.4102 31.0547C31.0054 29.7298 31.8876 27.8955 31.8877 25.7393C31.8877 23.7131 30.979 22.2578 29.5703 21.167C28.1907 20.0987 26.3222 19.3704 24.3525 18.7422C23.1962 18.3277 22.2101 18.012 21.4912 17.6035C20.7921 17.2062 20.4873 16.8021 20.4873 16.2568C20.4874 15.699 20.7852 15.3047 21.3486 15.0215C21.9333 14.7276 22.7549 14.588 23.624 14.5879C25.7226 14.5903 27.7504 15.3025 29.3486 16.5928V16.5918C29.616 16.8129 29.9553 16.9307 30.3018 16.9258C30.6509 16.9207 30.9895 16.792 31.251 16.5596L31.2578 16.5527L31.2646 16.5469L33.0078 14.8799L33.0068 14.8789C33.5828 14.3473 33.5535 13.4868 33.0176 12.9473L33.0078 12.9385L32.9707 12.9023L32.9561 12.8887L32.9404 12.876L32.6709 12.6631C31.4322 11.7072 30.0315 10.9589 28.5537 10.4395L28.9668 8.43359L28.9678 8.43457C29.1558 7.65587 28.6137 6.96521 27.8955 6.80664L27.8652 6.7998L27.835 6.79785L27.6475 6.7793L27.624 6.77734H24.2627Z" fill="black" stroke="#E8E8E8"/>
</svg>
