<svg width="16" height="16" viewBox="0 0 16 16" fill="none" xmlns="http://www.w3.org/2000/svg">
<path d="M16 1.6V4C16 4.42435 15.8314 4.83131 15.5314 5.13137C15.2313 5.43143 14.8243 5.6 14.4 5.6H10.4C9.97565 5.6 9.56869 5.43143 9.26863 5.13137C8.96857 4.83131 8.8 4.42435 8.8 4V1.6C8.8 1.17565 8.96857 0.768687 9.26863 0.468629C9.56869 0.168571 9.97565 0 10.4 0H14.4C14.8243 0 15.2313 0.168571 15.5314 0.468629C15.8314 0.768687 16 1.17565 16 1.6ZM5.6 10.4H1.6C1.17565 10.4 0.768687 10.5686 0.468629 10.8686C0.168571 11.1687 0 11.5757 0 12V14.4C0 14.8243 0.168571 15.2313 0.468629 15.5314C0.768687 15.8314 1.17565 16 1.6 16H5.6C6.02435 16 6.43131 15.8314 6.73137 15.5314C7.03143 15.2313 7.2 14.8243 7.2 14.4V12C7.2 11.5757 7.03143 11.1687 6.73137 10.8686C6.43131 10.5686 6.02435 10.4 5.6 10.4Z" fill="#2A514C"/>
<path d="M7.2 1.6V7.2C7.2 7.62435 7.03143 8.03131 6.73137 8.33137C6.43131 8.63143 6.02435 8.8 5.6 8.8H1.6C1.17565 8.8 0.768687 8.63143 0.468629 8.33137C0.168571 8.03131 0 7.62435 0 7.2V1.6C0 1.17565 0.168571 0.768687 0.468629 0.468629C0.768687 0.168571 1.17565 0 1.6 0H5.6C6.02435 0 6.43131 0.168571 6.73137 0.468629C7.03143 0.768687 7.2 1.17565 7.2 1.6ZM14.4 7.2H10.4C9.97565 7.2 9.56869 7.36857 9.26863 7.66863C8.96857 7.96869 8.8 8.37565 8.8 8.8V14.4C8.8 14.8243 8.96857 15.2313 9.26863 15.5314C9.56869 15.8314 9.97565 16 10.4 16H14.4C14.8243 16 15.2313 15.8314 15.5314 15.5314C15.8314 15.2313 16 14.8243 16 14.4V8.8C16 8.37565 15.8314 7.96869 15.5314 7.66863C15.2313 7.36857 14.8243 7.2 14.4 7.2Z" fill="#2A514C"/>
</svg>
