<svg width="45" height="36" viewBox="0 0 45 36" fill="none" xmlns="http://www.w3.org/2000/svg">
<path d="M8.18928 35.4226V33.0997C8.18928 32.209 7.64839 31.6284 6.72129 31.6284C6.25782 31.6284 5.75564 31.7833 5.40796 32.2866C5.13769 31.8607 4.75147 31.6284 4.17205 31.6284C3.78565 31.6284 3.3996 31.7445 3.09045 32.1704V31.7059H2.2793V35.4226H3.09045V33.3706C3.09045 32.7126 3.43814 32.4027 3.97902 32.4027C4.51956 32.4027 4.79018 32.7512 4.79018 33.3706V35.4226H5.60133V33.3706C5.60133 32.7126 5.98738 32.4027 6.48955 32.4027C7.03044 32.4027 7.30071 32.7512 7.30071 33.3706V35.4226H8.18928V35.4226ZM20.2019 31.7059H18.8888V30.5831H18.0776V31.7059H17.3437V32.4413H18.0774V34.145C18.0774 34.9969 18.4251 35.5001 19.3522 35.5001C19.6999 35.5001 20.086 35.384 20.3566 35.2292L20.1247 34.5322C19.8929 34.687 19.6227 34.7258 19.4295 34.7258C19.0433 34.7258 18.8888 34.4935 18.8888 34.1062V32.4413H20.2019V31.7059V31.7059ZM27.0775 31.6283C26.6141 31.6283 26.3051 31.8607 26.1119 32.1704V31.7059H25.3007V35.4226H26.1119V33.332C26.1119 32.7126 26.3822 32.3641 26.8843 32.3641C27.0388 32.3641 27.232 32.4029 27.3865 32.4415L27.6183 31.6672C27.4638 31.6284 27.232 31.6284 27.0775 31.6284V31.6283ZM16.687 32.0156C16.3006 31.7445 15.7599 31.6284 15.1805 31.6284C14.2536 31.6284 13.6356 32.093 13.6356 32.8286C13.6356 33.4482 14.0991 33.7965 14.9102 33.9127L15.2965 33.9516C15.7214 34.0288 15.9531 34.145 15.9531 34.3387C15.9531 34.6096 15.6442 34.8032 15.1033 34.8032C14.5626 34.8032 14.1376 34.6096 13.8672 34.4161L13.481 35.0355C13.9059 35.3452 14.4853 35.5001 15.0646 35.5001C16.1462 35.5001 16.7643 34.9969 16.7643 34.2999C16.7643 33.6417 16.2621 33.2932 15.4895 33.1771L15.1033 33.1383C14.7556 33.0995 14.4853 33.0223 14.4853 32.79C14.4853 32.5189 14.7556 32.3641 15.1805 32.3641C15.6442 32.3641 16.1076 32.5575 16.3393 32.6738L16.687 32.0156V32.0156ZM38.2407 31.6284C37.777 31.6284 37.4681 31.8607 37.2749 32.1704V31.7059H36.4637V35.4226H37.2749V33.332C37.2749 32.7126 37.5453 32.3641 38.0473 32.3641C38.202 32.3641 38.3952 32.4029 38.5496 32.4415L38.7814 31.6672C38.6269 31.6284 38.3952 31.6284 38.2407 31.6284V31.6284ZM27.8887 33.5642C27.8887 34.687 28.6611 35.5001 29.8587 35.5001C30.3994 35.5001 30.7856 35.384 31.1718 35.0743L30.7856 34.4161C30.4766 34.6484 30.1677 34.7644 29.82 34.7644C29.1633 34.7644 28.6999 34.2999 28.6999 33.5642C28.6999 32.8674 29.1633 32.4027 29.82 32.3641C30.1677 32.3641 30.4766 32.4801 30.7856 32.7126L31.1718 32.0544C30.7856 31.7445 30.3994 31.6284 29.8587 31.6284C28.6611 31.6284 27.8887 32.4415 27.8887 33.5642ZM35.3823 33.5642V31.7059H34.5711V32.1704C34.3007 31.8221 33.9145 31.6284 33.4123 31.6284C32.3694 31.6284 31.5582 32.4415 31.5582 33.5642C31.5582 34.687 32.3694 35.5001 33.4123 35.5001C33.953 35.5001 34.3394 35.3066 34.5711 34.9581V35.4226H35.3823V33.5642V33.5642ZM32.4079 33.5642C32.4079 32.906 32.8329 32.3641 33.5281 32.3641C34.1847 32.3641 34.6484 32.8674 34.6484 33.5642C34.6484 34.2225 34.1847 34.7644 33.5281 34.7644C32.8329 34.7256 32.4079 34.2225 32.4079 33.5642V33.5642ZM22.7128 31.6284C21.6312 31.6284 20.8586 32.4027 20.8586 33.5642C20.8586 34.7258 21.631 35.5001 22.7513 35.5001C23.292 35.5001 23.8329 35.3452 24.2579 34.9969L23.8715 34.4161C23.5625 34.6484 23.1763 34.8032 22.79 34.8032C22.2879 34.8032 21.7857 34.571 21.6697 33.9126H24.4124V33.6031C24.4511 32.4027 23.7557 31.6284 22.7126 31.6284H22.7128ZM22.7128 32.3253C23.2148 32.3253 23.5627 32.6351 23.6397 33.2159H21.7084C21.7857 32.7126 22.1334 32.3253 22.7128 32.3253ZM42.8371 33.5642V30.2346H42.026V32.1704C41.7556 31.8221 41.3693 31.6284 40.8672 31.6284C39.8243 31.6284 39.0131 32.4415 39.0131 33.5642C39.0131 34.687 39.8243 35.5001 40.8672 35.5001C41.408 35.5001 41.7943 35.3066 42.026 34.9581V35.4226H42.8371V33.5642V33.5642ZM39.863 33.5642C39.863 32.906 40.2877 32.3641 40.9831 32.3641C41.6398 32.3641 42.1032 32.8674 42.1032 33.5642C42.1032 34.2225 41.6398 34.7644 40.9831 34.7644C40.2877 34.7256 39.863 34.2225 39.863 33.5642V33.5642ZM12.747 33.5642V31.7059H11.9359V32.1704C11.6655 31.8221 11.2792 31.6284 10.7771 31.6284C9.73417 31.6284 8.92301 32.4415 8.92301 33.5642C8.92301 34.687 9.73417 35.5001 10.7771 35.5001C11.3179 35.5001 11.7042 35.3066 11.9359 34.9581V35.4226H12.747V33.5642V33.5642ZM9.73417 33.5642C9.73417 32.906 10.1591 32.3641 10.8543 32.3641C11.511 32.3641 11.9746 32.8674 11.9746 33.5642C11.9746 34.2225 11.511 34.7644 10.8543 34.7644C10.1591 34.7256 9.73417 34.2225 9.73417 33.5642V33.5642Z" fill="black"/>
<path d="M16.416 3.4812H28.5833V25.395H16.416V3.4812Z" fill="#FF5F00"/>
<path d="M17.1889 14.4381C17.1889 9.98571 19.2747 6.03651 22.4806 3.48113C20.1245 1.62275 17.1504 0.5 13.9057 0.5C6.21878 0.5 0 6.73333 0 14.4381C0 22.1427 6.21878 28.3762 13.9056 28.3762C17.1502 28.3762 20.1243 27.2534 22.4806 25.3949C19.2747 22.8783 17.1889 18.8905 17.1889 14.4381V14.4381Z" fill="#EB001B"/>
<path d="M45.0001 14.4381C45.0001 22.1427 38.7813 28.3762 31.0945 28.3762C27.8499 28.3762 24.8757 27.2534 22.5195 25.3949C25.7641 22.8397 27.8114 18.8905 27.8114 14.4381C27.8114 9.98571 25.7254 6.03651 22.5195 3.48113C24.8756 1.62275 27.8499 0.5 31.0945 0.5C38.7813 0.5 45.0003 6.77213 45.0003 14.4381H45.0001Z" fill="#F79E1B"/>
</svg>
