<svg width="16" height="16" viewBox="0 0 16 16" fill="none" xmlns="http://www.w3.org/2000/svg">
<path d="M1.79942 9.59794L6.50138 9.59777C6.222 9.93597 6.04175 10.3591 6.00514 10.8226L5.99823 10.9983V14.5989C5.99823 15.131 6.18707 15.6189 6.50138 15.9994L6.3983 16C3.66104 16 1.64231 15.1421 0.408367 13.4103C0.14275 13.0376 0 12.5912 0 12.1335V11.3974C0 10.4036 0.805628 9.59794 1.79942 9.59794ZM10.199 7.59765H12.5994C13.1173 7.59765 13.5432 7.99122 13.5944 8.49557L13.5996 8.59783L13.5992 9.5977L14.5998 9.59801C15.3731 9.59801 16 10.2249 16 10.9983V14.5989C16 15.3722 15.3731 15.9991 14.5998 15.9991H8.19862C7.42529 15.9991 6.79837 15.3722 6.79837 14.5989V10.9983C6.79837 10.2249 7.42529 9.59801 8.19862 9.59801L9.19843 9.5977L9.1988 8.59783C9.1988 8.07997 9.59237 7.65403 10.0967 7.60281L10.199 7.59765ZM12.3994 8.79786H10.399L10.3986 9.5977H12.399L12.3994 8.79786ZM6.3983 0C8.60783 0 10.399 1.79118 10.399 4.00071C10.399 6.21024 8.60783 8.00142 6.3983 8.00142C4.18877 8.00142 2.39759 6.21024 2.39759 4.00071C2.39759 1.79118 4.18877 0 6.3983 0Z" fill="#2A514C"/>
</svg>
