<svg width="24" height="24" viewBox="0 0 24 24" fill="none" xmlns="http://www.w3.org/2000/svg">
<path fill-rule="evenodd" clip-rule="evenodd" d="M9.76501 2.99783C10.0464 2.68357 10.3909 2.43219 10.776 2.26008C11.1611 2.08798 11.5782 1.99902 12 1.99902C12.4218 1.99902 12.8389 2.08798 13.224 2.26008C13.6091 2.43219 13.9536 2.68357 14.235 2.99783L14.935 3.77983C15.035 3.89174 15.159 3.97969 15.2977 4.03716C15.4363 4.09463 15.5861 4.12015 15.736 4.11183L16.786 4.05383C17.2071 4.03071 17.6283 4.09661 18.0221 4.24723C18.416 4.39785 18.7737 4.62982 19.0718 4.928C19.37 5.22617 19.602 5.58386 19.7526 5.97772C19.9032 6.37159 19.9691 6.79278 19.946 7.21383L19.888 8.26383C19.8798 8.41354 19.9054 8.56316 19.9629 8.70164C20.0204 8.84012 20.1082 8.9639 20.22 9.06383L21.003 9.76383C21.3174 10.0452 21.569 10.3898 21.7412 10.775C21.9134 11.1602 22.0024 11.5774 22.0024 11.9993C22.0024 12.4213 21.9134 12.8385 21.7412 13.2237C21.569 13.6089 21.3174 13.9534 21.003 14.2348L20.22 14.9348C20.1081 15.0349 20.0201 15.1588 19.9627 15.2975C19.9052 15.4361 19.8797 15.586 19.888 15.7358L19.946 16.7858C19.9691 17.2069 19.9032 17.6281 19.7526 18.0219C19.602 18.4158 19.37 18.7735 19.0718 19.0717C18.7737 19.3698 18.416 19.6018 18.0221 19.7524C17.6283 19.9031 17.2071 19.969 16.786 19.9458L15.736 19.8878C15.5863 19.8797 15.4367 19.9053 15.2982 19.9627C15.1597 20.0202 15.0359 20.1081 14.936 20.2198L14.236 21.0028C13.9546 21.3173 13.6101 21.5688 13.2249 21.741C12.8397 21.9132 12.4225 22.0022 12.0005 22.0022C11.5786 22.0022 11.1614 21.9132 10.7762 21.741C10.3909 21.5688 10.0464 21.3173 9.76501 21.0028L9.06501 20.2198C8.96497 20.1079 8.84102 20.02 8.70236 19.9625C8.5637 19.905 8.41388 19.8795 8.26401 19.8878L7.21401 19.9458C6.79296 19.969 6.37176 19.9031 5.9779 19.7524C5.58403 19.6018 5.22635 19.3698 4.92817 19.0717C4.63 18.7735 4.39803 18.4158 4.24741 18.0219C4.09678 17.6281 4.03088 17.2069 4.05401 16.7858L4.11201 15.7358C4.12018 15.5861 4.09458 15.4365 4.03712 15.298C3.97965 15.1595 3.89178 15.0358 3.78001 14.9358L2.99801 14.2358C2.68359 13.9544 2.43206 13.6099 2.25986 13.2247C2.08765 12.8395 1.99864 12.4223 1.99864 12.0003C1.99864 11.5784 2.08765 11.1612 2.25986 10.776C2.43206 10.3908 2.68359 10.0462 2.99801 9.76483L3.78001 9.06483C3.89191 8.96479 3.97987 8.84085 4.03734 8.70219C4.09481 8.56352 4.12033 8.4137 4.11201 8.26383L4.05401 7.21383C4.03088 6.79278 4.09678 6.37159 4.24741 5.97772C4.39803 5.58386 4.63 5.22617 4.92817 4.928C5.22635 4.62982 5.58403 4.39785 5.9779 4.24723C6.37176 4.09661 6.79296 4.03071 7.21401 4.05383L8.26401 4.11183C8.41371 4.12 8.56334 4.09441 8.70182 4.03694C8.84029 3.97947 8.96408 3.8916 9.06401 3.77983L9.76501 2.99783ZM15.707 8.29283C15.8945 8.48036 15.9998 8.73467 15.9998 8.99983C15.9998 9.26499 15.8945 9.5193 15.707 9.70683L9.70701 15.7068C9.5184 15.889 9.2658 15.9898 9.00361 15.9875C8.74141 15.9852 8.4906 15.8801 8.30519 15.6946C8.11978 15.5092 8.01461 15.2584 8.01233 14.9962C8.01006 14.734 8.11085 14.4814 8.29301 14.2928L14.293 8.29283C14.4805 8.10536 14.7348 8.00004 15 8.00004C15.2652 8.00004 15.5195 8.10536 15.707 8.29283ZM9.50001 7.99983C9.10218 7.99983 8.72065 8.15787 8.43935 8.43917C8.15804 8.72047 8.00001 9.10201 8.00001 9.49983V9.50983C8.00001 9.90766 8.15804 10.2892 8.43935 10.5705C8.72065 10.8518 9.10218 11.0098 9.50001 11.0098H9.51001C9.90783 11.0098 10.2894 10.8518 10.5707 10.5705C10.852 10.2892 11.01 9.90766 11.01 9.50983V9.49983C11.01 9.10201 10.852 8.72047 10.5707 8.43917C10.2894 8.15787 9.90783 7.99983 9.51001 7.99983H9.50001ZM14.5 12.9998C14.1022 12.9998 13.7207 13.1579 13.4393 13.4392C13.158 13.7205 13 14.102 13 14.4998V14.5098C13 14.9077 13.158 15.2892 13.4393 15.5705C13.7207 15.8518 14.1022 16.0098 14.5 16.0098H14.51C14.9078 16.0098 15.2894 15.8518 15.5707 15.5705C15.852 15.2892 16.01 14.9077 16.01 14.5098V14.4998C16.01 14.102 15.852 13.7205 15.5707 13.4392C15.2894 13.1579 14.9078 12.9998 14.51 12.9998H14.5Z" fill="#2A514C"/>
</svg>
