<svg width="19" height="18" viewBox="0 0 19 18" fill="none" xmlns="http://www.w3.org/2000/svg">
<g clip-path="url(#clip0_79_2834)">
<path fill-rule="evenodd" clip-rule="evenodd" d="M8.49312 13.7531C4.955 13.7531 2.08682 10.935 2.08682 7.45312C2.08682 3.97125 4.955 1.14752 8.49312 1.14752C12.0312 1.14752 14.9 3.97125 14.9 7.45312C14.9 10.935 12.0312 13.7531 8.49312 13.7531ZM18.7464 17.0156L14.1007 12.4425C15.3168 11.1206 16.0644 9.37687 16.0644 7.45312C16.0644 3.33562 12.6747 0 8.49312 0C4.3115 0 0.921875 3.33562 0.921875 7.45312C0.921875 11.565 4.3115 14.9006 8.49312 14.9006C10.2999 14.9006 11.957 14.2763 13.2586 13.2356L17.9229 17.8256C18.1507 18.0506 18.5191 18.0506 18.7464 17.8256C18.9742 17.6062 18.9742 17.2406 18.7464 17.0156Z" fill="black"/>
</g>
<defs>
<clipPath id="clip0_79_2834">
<rect width="18" height="18" fill="white" transform="translate(0.921875)"/>
</clipPath>
</defs>
</svg>
