<svg width="25" height="25" viewBox="0 0 25 25" fill="none" xmlns="http://www.w3.org/2000/svg">
<path d="M12 16.5252L12 7.87524L9.67 10.2052L8.962 9.48724L12.5 5.94824L16.039 9.48724L15.331 10.2062L13 7.87524L13 16.5252L12 16.5252ZM7.116 19.9482C6.65533 19.9482 6.271 19.7942 5.963 19.4862C5.655 19.1782 5.50067 18.7936 5.5 18.3322L5.5 15.9092L6.5 15.9092L6.5 18.3322C6.5 18.4862 6.564 18.6276 6.692 18.7562C6.82 18.8849 6.961 18.9489 7.115 18.9482L17.885 18.9482C18.0383 18.9482 18.1793 18.8842 18.308 18.7562C18.4367 18.6282 18.5007 18.4869 18.5 18.3322L18.5 15.9092L19.5 15.9092L19.5 18.3322C19.5 18.7929 19.346 19.1772 19.038 19.4852C18.73 19.7932 18.3453 19.9476 17.884 19.9482L7.116 19.9482Z" fill="#2A514C"/>
</svg>
