<svg width="45" height="36" viewBox="0 0 45 36" fill="none" xmlns="http://www.w3.org/2000/svg">
<path d="M36.7266 16.0703C36.7266 16.0703 37.3203 18.9766 37.4531 19.5859H34.8438C35.1016 18.8906 36.0938 16.1875 36.0938 16.1875C36.0781 16.2109 36.3516 15.4766 36.5078 15.0234L36.7266 16.0703ZM45 4.25V31.75C45 33.8203 43.3203 35.5 41.25 35.5H3.75C1.67969 35.5 0 33.8203 0 31.75V4.25C0 2.17969 1.67969 0.5 3.75 0.5H41.25C43.3203 0.5 45 2.17969 45 4.25ZM11.9141 23.875L16.8516 11.75H13.5312L10.4609 20.0312L10.125 18.3516L9.03125 12.7734C8.85156 12 8.29688 11.7812 7.60938 11.75H2.55469L2.5 11.9922C3.73438 12.3047 4.83594 12.7578 5.79688 13.3281L8.59375 23.875H11.9141ZM19.2891 23.8906L21.2578 11.75H18.1172L16.1562 23.8906H19.2891ZM30.2188 19.9219C30.2344 18.5391 29.3906 17.4844 27.5859 16.6172C26.4844 16.0625 25.8125 15.6875 25.8125 15.1172C25.8281 14.6016 26.3828 14.0703 27.6172 14.0703C28.6406 14.0469 29.3906 14.2891 29.9531 14.5312L30.2344 14.6641L30.6641 12.0391C30.0469 11.7969 29.0625 11.5234 27.8516 11.5234C24.75 11.5234 22.5703 13.1797 22.5547 15.5391C22.5312 17.2812 24.1172 18.25 25.3047 18.8359C26.5156 19.4297 26.9297 19.8203 26.9297 20.3438C26.9141 21.1562 25.9453 21.5312 25.0469 21.5312C23.7969 21.5312 23.125 21.3359 22.1016 20.8828L21.6875 20.6875L21.25 23.4141C21.9844 23.75 23.3438 24.0469 24.75 24.0625C28.0469 24.0703 30.1953 22.4375 30.2188 19.9219ZM41.25 23.8906L38.7188 11.75H36.2891C35.5391 11.75 34.9688 11.9687 34.6484 12.7578L29.9844 23.8906H33.2812C33.2812 23.8906 33.8203 22.3906 33.9375 22.0703H37.9688C38.0625 22.5 38.3438 23.8906 38.3438 23.8906H41.25Z" fill="black"/>
</svg>
